<?xml version="1.0" encoding="UTF-8"?>
<svg xmlns="http://www.w3.org/2000/svg" viewBox="0 0 78.73 78.73" role="img" aria-label="Meri logo mark">
  <path d="M59.3,57.44h-6.69c-.56,0-.96-.46-.96-1.01v-22.35c0-5.98-1.57-7.04-7.6-7.04v29.39c0,.56-.46,1.01-1.01,1.01h-6.69c-.56,0-.96-.46-.96-1.01v-29.39c-6.03,0-7.65,1.06-7.65,7.04v22.35c0,.56-.4,1.01-.96,1.01h-6.69c-.56,0-1.01-.46-1.01-1.01v-22.35c0-12.52,6.39-14.75,20.62-14.75s20.62,2.23,20.62,14.75v22.35c0,.56-.46,1.01-1.01,1.01Z" fill="#7b6a5d"/>
  <path d="M39.36,0C17.62,0,0,17.62,0,39.36s17.62,39.36,39.36,39.36,39.36-17.62,39.36-39.36S61.1,0,39.36,0ZM39.36,71.77c-17.9,0-32.4-14.51-32.4-32.4S21.47,6.96,39.36,6.96s32.4,14.51,32.4,32.4-14.51,32.4-32.4,32.4Z" fill="#7b6a5d"/>
</svg>
