<?xml version="1.0" encoding="UTF-8"?>
<svg id="Layer_2" data-name="Layer 2" xmlns="http://www.w3.org/2000/svg" viewBox="0 0 338.3 78.73">
  <g id="Ebene_1" data-name="Ebene 1">
    <g>
      <path d="M115.81,41.78h-4.64c-.39,0-.67-.32-.67-.7v-15.51c0-4.15-1.09-4.89-5.28-4.89v20.4c0,.39-.32.7-.7.7h-4.64c-.39,0-.67-.32-.67-.7v-20.4c-4.19,0-5.31.74-5.31,4.89v15.51c0,.39-.28.7-.67.7h-4.64c-.39,0-.7-.32-.7-.7v-15.51c0-8.69,4.43-10.23,14.32-10.23s14.31,1.55,14.31,10.23v15.51c0,.39-.32.7-.7.7Z"/>
      <path d="M136.71,41.64c-1.23.18-3.02.46-6.82.46-4.54,0-8.55-1.16-8.55-7.56v-11.68c0-6.4,4.05-7.53,8.58-7.53,3.8,0,5.56.28,6.79.46.49.07.7.25.7.7v3.27c0,.39-.32.7-.7.7h-7.14c-1.65,0-2.25.56-2.25,2.39v3.2h9.11c.39,0,.7.32.7.7v3.34c0,.39-.32.7-.7.7h-9.11v3.73c0,1.83.6,2.39,2.25,2.39h7.14c.39,0,.7.32.7.7v3.27c0,.46-.21.67-.7.74Z"/>
      <path d="M161.51,41.78h-5.38c-.39,0-.53-.35-.7-.7l-4.71-8.9-.39.04c-.74,0-1.83-.07-2.5-.07v8.93c0,.39-.32.7-.7.7h-4.57c-.39,0-.7-.32-.7-.7v-23.6c0-1.2.49-1.51,1.58-1.69,1.62-.25,4.61-.46,7.14-.46,5.98,0,10.59,2.01,10.59,8.23v.46c0,3.73-1.97,6.01-4.54,7.04l5.31,9.92c.07.14.11.28.11.39,0,.25-.14.42-.53.42ZM155.18,23.56c0-2.15-1.65-3.13-4.61-3.13-.49,0-2.32.07-2.74.11v6.75c.39.03,2.11.07,2.5.07,3.69,0,4.85-.95,4.85-3.34v-.46Z"/>
      <path d="M171.12,41.78h-4.71c-.39,0-.63-.32-.63-.7v-24.76c0-.39.25-.67.63-.67h4.71c.39,0,.67.28.67.67v24.76c0,.39-.28.7-.67.7Z"/>
      <path d="M192.16,42.03c-1.83,0-3.69-.11-5.28-.28-.46-.03-.67-.25-.67-.67v-24.73c0-.35.32-.63.67-.67,1.44-.11,3.48-.21,5.28-.21,4.82,0,9.67,1.09,9.67,6.37v.39c0,2.92-1.58,4.92-4.19,5.84,2.71.81,4.33,2.85,4.33,5.98v.6c0,6.23-5.38,7.39-9.81,7.39ZM200.28,21.84c0-4.29-4.01-5-8.12-5-1.55,0-3.2.11-4.4.14v10.31h6.37c4.92,0,6.15-2.43,6.15-5.07v-.39ZM200.42,34.05c0-2.71-1.34-5.24-6.3-5.24h-6.37v11.61c1.51.11,2.67.21,4.4.21,4.22,0,8.27-.88,8.27-5.98v-.6Z"/>
      <path d="M214.92,42c-5.24,0-9-3.24-9-11.08v-4.36c0-7.84,3.76-11.08,9-11.08s9.01,3.24,9.01,11.08v4.36c0,7.85-3.76,11.08-9.01,11.08ZM222.37,26.55c0-7.18-3.2-9.6-7.46-9.6s-7.46,2.43-7.46,9.6v4.36c0,7.18,3.2,9.6,7.46,9.6s7.46-2.43,7.46-9.6v-4.36Z"/>
      <path d="M244.22,41.78h-.35c-.35,0-.6-.32-.6-.67v-11.57h-12.87v11.57c0,.35-.25.67-.6.67h-.35c-.35,0-.6-.32-.6-.67v-18.68c0-4.61,1.51-6.79,6.75-6.79h2.46c5.24,0,6.75,2.18,6.75,6.79v18.68c0,.35-.25.67-.6.67ZM243.27,22.44c0-4.01-1.13-5.35-5.21-5.35h-2.46c-4.08,0-5.2,1.34-5.2,5.35v5.59h12.87v-5.59Z"/>
      <path d="M266.53,41.78h-.46c-.18,0-.42-.18-.53-.32l-7.49-11.47c-.67.03-.91,0-1.51,0-1.37,0-4.54-.03-4.54-.03v11.15c0,.35-.25.67-.6.67h-.35c-.35,0-.6-.32-.6-.67v-24.83c0-.32.28-.63.6-.67,1.23-.07,3.97-.14,5.49-.14,6.33,0,9.57,1.79,9.57,7.18v.18c0,4.29-2.15,6.3-6.29,7l7.1,10.94c.28.46.21,1.02-.39,1.02ZM264.56,22.65c0-4.4-2.78-5.7-8.02-5.7-1.48,0-3.48.03-4.54.14v11.4c.95,0,3.52.03,4.54.03,5.45,0,8.02-1.2,8.02-5.7v-.18Z"/>
      <path d="M277.86,42c-2.82,0-4.75-.11-5.77-.28-.32-.07-.6-.35-.6-.67v-24.62c0-.32.28-.6.6-.67,1.02-.18,2.95-.28,5.77-.28,5.98,0,10.27,2.85,10.27,11.08v4.36c0,8.09-4.29,11.08-10.27,11.08ZM286.58,26.55c0-7.49-3.8-9.71-8.72-9.71-2.04,0-3.27.11-4.82.21v23.43c1.55.11,2.78.14,4.82.14,4.92,0,8.72-2.29,8.72-9.71v-4.36Z"/>
      <path d="M294.36,41.78h-.35c-.35,0-.6-.32-.6-.67v-24.8c0-.35.25-.67.6-.67h.35c.35,0,.6.32.6.67v24.8c0,.35-.25.67-.6.67Z"/>
      <path d="M317.01,41.78h-.35c-.35,0-.6-.32-.6-.67v-16.36c0-5.28-1.62-7.88-6.54-7.88-2.74,0-5.7.28-7.03.42v23.81c0,.35-.25.67-.63.67h-.32c-.39,0-.6-.32-.6-.67v-24.41c0-.42.21-.6.49-.63,2.04-.28,5.28-.6,8.09-.6,5.73,0,8.09,3.34,8.09,9.29v16.36c0,.35-.25.67-.6.67Z"/>
      <path d="M337.56,17.27c-2.5-.25-3.62-.35-6.19-.35-3.52,0-7.28,1.97-7.28,9.64v4.36c0,6.65,2.81,9.6,7.28,9.6,2.99,0,4.78-.25,5.35-.32v-11.18c0-.39.25-.67.6-.67h.35c.35,0,.6.28.6.67v11.85c0,.35-.28.63-.6.67-1.69.21-3.31.46-6.3.46-5,0-8.83-3.31-8.83-11.08v-4.36c0-8.79,4.71-11.08,8.83-11.08,3.17,0,4.82.18,6.33.35.32.03.6.14.6.56v.35c0,.46-.21.6-.74.53Z"/>
    </g>
    <g>
      <path d="M95.87,48.29c-1.33-.13-1.93-.19-3.29-.19-1.87,0-3.87,1.05-3.87,5.12v2.32c0,3.53,1.5,5.1,3.87,5.1,1.59,0,2.54-.13,2.84-.17v-5.95c0-.21.13-.36.32-.36h.19c.19,0,.32.15.32.36v6.3c0,.19-.15.34-.32.36-.9.11-1.76.24-3.34.24-2.66,0-4.69-1.76-4.69-5.89v-2.32c0-4.67,2.51-5.89,4.69-5.89,1.68,0,2.56.09,3.36.19.17.02.32.08.32.3v.19c0,.24-.11.32-.39.28Z"/>
      <path d="M107.8,61.32h-.24c-.09,0-.22-.09-.28-.17l-3.98-6.1c-.36.02-.49,0-.81,0-.73,0-2.41-.02-2.41-.02v5.93c0,.19-.13.36-.32.36h-.19c-.19,0-.32-.17-.32-.36v-13.2c0-.17.15-.34.32-.36.65-.04,2.11-.08,2.92-.08,3.37,0,5.09.95,5.09,3.81v.09c0,2.28-1.14,3.35-3.35,3.72l3.78,5.82c.15.24.11.54-.21.54ZM106.76,51.15c0-2.34-1.48-3.03-4.26-3.03-.78,0-1.85.02-2.41.08v6.06c.51,0,1.87.02,2.41.02,2.9,0,4.26-.64,4.26-3.03v-.09Z"/>
      <path d="M114.39,61.43c-2.78,0-4.79-1.72-4.79-5.89v-2.32c0-4.17,2-5.89,4.79-5.89s4.79,1.72,4.79,5.89v2.32c0,4.17-2,5.89-4.79,5.89ZM118.36,53.22c0-3.81-1.7-5.1-3.96-5.1s-3.96,1.29-3.96,5.1v2.32c0,3.81,1.7,5.1,3.96,5.1s3.96-1.29,3.96-5.1v-2.32Z"/>
      <path d="M130.38,61c-.86.21-2.8.43-4.3.43-3.05,0-4.28-1.79-4.28-4.96v-8.69c0-.19.13-.35.32-.35h.19c.19,0,.32.17.32.35v8.69c0,2.71.84,4.19,3.46,4.19,1.5,0,3.06-.17,3.76-.3v-12.58c0-.19.11-.35.32-.35h.17c.21,0,.32.17.32.35v12.88c0,.23-.11.3-.26.34Z"/>
      <path d="M136.51,55.45c-.73,0-1.51-.04-2.04-.08v5.59c0,.19-.13.36-.32.36h-.19c-.19,0-.32-.17-.32-.36v-13.18c0-.17.15-.33.32-.35.65-.04,1.74-.09,2.54-.09,3.18,0,5.09,1.1,5.09,3.79v.32c0,2.93-1.91,4-5.09,4ZM140.77,51.13c0-2.32-1.48-3.06-4.26-3.06-.78,0-1.5.02-2.04.05v6.53c.58.04,1.4.07,2.04.07,2.9,0,4.26-.9,4.26-3.27v-.32Z"/>
    </g>
    <g>
      <path d="M59.3,57.44h-6.69c-.56,0-.96-.46-.96-1.01v-22.35c0-5.98-1.57-7.04-7.6-7.04v29.39c0,.56-.46,1.01-1.01,1.01h-6.69c-.56,0-.96-.46-.96-1.01v-29.39c-6.03,0-7.65,1.06-7.65,7.04v22.35c0,.56-.4,1.01-.96,1.01h-6.69c-.56,0-1.01-.46-1.01-1.01v-22.35c0-12.52,6.39-14.75,20.62-14.75s20.62,2.23,20.62,14.75v22.35c0,.56-.46,1.01-1.01,1.01Z" fill="#7b6a5d"/>
      <path d="M39.36,0C17.62,0,0,17.62,0,39.36s17.62,39.36,39.36,39.36,39.36-17.62,39.36-39.36S61.1,0,39.36,0ZM39.36,71.77c-17.9,0-32.4-14.51-32.4-32.4S21.47,6.96,39.36,6.96s32.4,14.51,32.4,32.4-14.51,32.4-32.4,32.4Z" fill="#7b6a5d"/>
    </g>
  </g>
</svg>