<svg xmlns="http://www.w3.org/2000/svg" viewBox="0 0 60 30">
  <rect width="60" height="30" fill="#012169"/>
  <polygon points="0,0 6,0 60,24 60,30 54,30 0,6" fill="#FFFFFF"/>
  <polygon points="60,0 60,6 6,30 0,30 0,24 54,0" fill="#FFFFFF"/>
  <polygon points="0,0 3,0 60,27 60,30 57,30 0,3" fill="#C8102E"/>
  <polygon points="60,0 60,3 3,30 0,30 0,27 57,0" fill="#C8102E"/>
  <rect x="0" y="12" width="60" height="6" fill="#FFFFFF"/>
  <rect x="27" y="0" width="6" height="30" fill="#FFFFFF"/>
  <rect x="0" y="13.5" width="60" height="3" fill="#C8102E"/>
  <rect x="28.5" y="0" width="3" height="30" fill="#C8102E"/>
</svg>
