<?xml version="1.0" encoding="UTF-8"?>
<svg id="Layer_2" data-name="Layer 2" xmlns="http://www.w3.org/2000/svg" viewBox="0 0 273.87 58.36">
  <g id="Ebene_1" data-name="Ebene 1">
    <g>
      <path d="M90.2,33.48h-3.83c-.32,0-.55-.26-.55-.58v-12.81c0-3.43-.9-4.04-4.36-4.04v16.84c0,.32-.26.58-.58.58h-3.83c-.32,0-.55-.26-.55-.58v-16.84c-3.46,0-4.39.61-4.39,4.04v12.81c0,.32-.23.58-.55.58h-3.83c-.32,0-.58-.26-.58-.58v-12.81c0-7.17,3.66-8.45,11.82-8.45s11.82,1.28,11.82,8.45v12.81c0,.32-.26.58-.58.58Z" fill="#fff"/>
      <path d="M107.45,33.37c-1.02.15-2.5.38-5.63.38-3.75,0-7.06-.96-7.06-6.24v-9.64c0-5.28,3.34-6.21,7.09-6.21,3.14,0,4.59.23,5.6.38.41.06.58.2.58.58v2.7c0,.32-.26.58-.58.58h-5.89c-1.37,0-1.86.46-1.86,1.97v2.64h7.52c.32,0,.58.26.58.58v2.76c0,.32-.26.58-.58.58h-7.52v3.08c0,1.51.49,1.97,1.86,1.97h5.89c.32,0,.58.26.58.58v2.7c0,.38-.17.55-.58.61Z" fill="#fff"/>
      <path d="M127.92,33.48h-4.44c-.32,0-.44-.29-.58-.58l-3.89-7.35-.32.03c-.61,0-1.51-.06-2.06-.06v7.37c0,.32-.26.58-.58.58h-3.77c-.32,0-.58-.26-.58-.58V13.42c0-.99.41-1.25,1.31-1.39,1.34-.2,3.8-.38,5.89-.38,4.94,0,8.74,1.66,8.74,6.8v.38c0,3.08-1.63,4.97-3.75,5.81l4.38,8.19c.06.12.09.23.09.32,0,.2-.12.35-.44.35ZM122.7,18.44c0-1.77-1.36-2.58-3.8-2.58-.41,0-1.92.06-2.26.09v5.58c.32.03,1.74.06,2.06.06,3.05,0,4.01-.78,4.01-2.76v-.38Z" fill="#fff"/>
      <path d="M135.86,33.48h-3.89c-.32,0-.52-.26-.52-.58V12.46c0-.32.2-.55.52-.55h3.89c.32,0,.55.23.55.55v20.44c0,.32-.23.58-.55.58Z" fill="#fff"/>
      <path d="M153.22,33.69c-1.51,0-3.05-.09-4.36-.23-.38-.03-.55-.2-.55-.55V12.49c0-.29.26-.52.55-.55,1.19-.09,2.88-.17,4.36-.17,3.98,0,7.98.9,7.98,5.26v.32c0,2.41-1.31,4.07-3.46,4.82,2.24.67,3.57,2.35,3.57,4.94v.49c0,5.14-4.44,6.1-8.1,6.1ZM159.93,17.02c0-3.54-3.31-4.12-6.71-4.12-1.28,0-2.64.09-3.63.12v8.51h5.26c4.07,0,5.08-2,5.08-4.18v-.32ZM160.05,27.1c0-2.24-1.1-4.33-5.2-4.33h-5.26v9.58c1.25.09,2.21.17,3.63.17,3.48,0,6.82-.73,6.82-4.94v-.49Z" fill="#fff"/>
      <path d="M172.01,33.66c-4.33,0-7.43-2.67-7.43-9.15v-3.6c0-6.48,3.11-9.15,7.43-9.15s7.43,2.67,7.43,9.15v3.6c0,6.48-3.11,9.15-7.43,9.15ZM178.17,20.91c0-5.92-2.64-7.93-6.16-7.93s-6.16,2-6.16,7.93v3.6c0,5.92,2.64,7.93,6.16,7.93s6.16-2,6.16-7.93v-3.6Z" fill="#fff"/>
      <path d="M196.21,33.48h-.29c-.29,0-.49-.26-.49-.55v-9.55h-10.63v9.55c0,.29-.2.55-.49.55h-.29c-.29,0-.49-.26-.49-.55v-15.42c0-3.8,1.25-5.6,5.58-5.6h2.03c4.33,0,5.58,1.8,5.58,5.6v15.42c0,.29-.2.55-.49.55ZM195.42,17.51c0-3.31-.93-4.41-4.3-4.41h-2.03c-3.37,0-4.3,1.1-4.3,4.41v4.62h10.63v-4.62Z" fill="#fff"/>
      <path d="M214.62,33.48h-.38c-.15,0-.35-.15-.44-.26l-6.19-9.47c-.55.03-.75,0-1.25,0-1.13,0-3.75-.03-3.75-.03v9.2c0,.29-.2.55-.49.55h-.29c-.29,0-.49-.26-.49-.55V12.43c0-.26.23-.52.49-.55,1.02-.06,3.28-.12,4.53-.12,5.23,0,7.9,1.48,7.9,5.92v.15c0,3.54-1.77,5.2-5.2,5.78l5.87,9.03c.23.38.17.84-.32.84ZM213,17.69c0-3.63-2.29-4.7-6.62-4.7-1.22,0-2.87.03-3.75.12v9.41c.78,0,2.9.03,3.75.03,4.5,0,6.62-.99,6.62-4.7v-.15Z" fill="#fff"/>
      <path d="M223.97,33.66c-2.32,0-3.92-.09-4.76-.23-.26-.06-.49-.29-.49-.55V12.55c0-.26.23-.49.49-.55.84-.15,2.44-.23,4.76-.23,4.94,0,8.48,2.35,8.48,9.15v3.6c0,6.68-3.54,9.15-8.48,9.15ZM231.18,20.91c0-6.19-3.14-8.02-7.2-8.02-1.68,0-2.7.09-3.98.17v19.34c1.28.09,2.29.12,3.98.12,4.07,0,7.2-1.89,7.2-8.02v-3.6Z" fill="#fff"/>
      <path d="M237.59,33.48h-.29c-.29,0-.49-.26-.49-.55V12.46c0-.29.2-.55.49-.55h.29c.29,0,.49.26.49.55v20.47c0,.29-.2.55-.49.55Z" fill="#fff"/>
      <path d="M256.3,33.48h-.29c-.29,0-.49-.26-.49-.55v-13.5c0-4.36-1.34-6.51-5.4-6.51-2.26,0-4.7.23-5.81.35v19.66c0,.29-.2.55-.52.55h-.26c-.32,0-.49-.26-.49-.55V12.78c0-.35.17-.49.41-.52,1.68-.23,4.36-.49,6.68-.49,4.73,0,6.68,2.76,6.68,7.67v13.5c0,.29-.2.55-.49.55Z" fill="#fff"/>
      <path d="M273.26,13.24c-2.06-.2-2.99-.29-5.11-.29-2.9,0-6.01,1.63-6.01,7.96v3.6c0,5.49,2.32,7.93,6.01,7.93,2.47,0,3.95-.2,4.41-.26v-9.23c0-.32.2-.55.49-.55h.29c.29,0,.49.23.49.55v9.78c0,.29-.23.52-.49.55-1.39.17-2.73.38-5.2.38-4.12,0-7.29-2.73-7.29-9.15v-3.6c0-7.26,3.89-9.15,7.29-9.15,2.61,0,3.98.15,5.23.29.26.03.49.12.49.46v.29c0,.38-.17.49-.61.44Z" fill="#fff"/>
    </g>
    <g>
      <path d="M43.96,42.58h-4.96c-.41,0-.71-.34-.71-.75v-16.57c0-4.43-1.17-5.22-5.63-5.22v21.79c0,.41-.34.75-.75.75h-4.96c-.41,0-.71-.34-.71-.75v-21.79c-4.47,0-5.67.79-5.67,5.22v16.57c0,.41-.3.75-.71.75h-4.96c-.41,0-.75-.34-.75-.75v-16.57c0-9.28,4.73-10.93,15.29-10.93s15.29,1.65,15.29,10.93v16.57c0,.41-.34.75-.75.75Z" fill="#caa05c"/>
      <path d="M29.18,0C13.06,0,0,13.06,0,29.18s13.06,29.18,29.18,29.18,29.18-13.06,29.18-29.18S45.3,0,29.18,0ZM29.18,53.2c-13.27,0-24.02-10.75-24.02-24.02S15.91,5.16,29.18,5.16s24.02,10.75,24.02,24.02-10.75,24.02-24.02,24.02Z" fill="#caa05c"/>
    </g>
    <g>
      <path d="M73.1,37.51c-.93-.09-1.35-.13-2.3-.13-1.31,0-2.71.73-2.71,3.59v1.62c0,2.47,1.05,3.57,2.71,3.57,1.11,0,1.78-.09,1.99-.12v-4.16c0-.14.09-.25.22-.25h.13c.13,0,.22.11.22.25v4.41c0,.13-.1.24-.22.25-.63.08-1.23.17-2.34.17-1.86,0-3.29-1.23-3.29-4.12v-1.62c0-3.27,1.75-4.12,3.29-4.12,1.18,0,1.79.07,2.35.13.12.01.22.05.22.21v.13c0,.17-.08.22-.27.2Z" fill="#fff"/>
      <path d="M81.45,46.63h-.17c-.06,0-.16-.06-.2-.12l-2.79-4.27c-.25.01-.34,0-.56,0-.51,0-1.69-.01-1.69-.01v4.15c0,.13-.09.25-.22.25h-.13c-.13,0-.22-.12-.22-.25v-9.24c0-.12.1-.24.22-.25.46-.03,1.48-.05,2.04-.05,2.36,0,3.56.67,3.56,2.67v.07c0,1.6-.8,2.34-2.34,2.6l2.64,4.07c.1.17.08.38-.14.38ZM80.72,39.52c0-1.64-1.03-2.12-2.98-2.12-.55,0-1.3.01-1.69.05v4.24c.35,0,1.31.01,1.69.01,2.03,0,2.98-.45,2.98-2.12v-.07Z" fill="#fff"/>
      <path d="M86.06,46.71c-1.95,0-3.35-1.2-3.35-4.12v-1.62c0-2.92,1.4-4.12,3.35-4.12s3.35,1.2,3.35,4.12v1.62c0,2.92-1.4,4.12-3.35,4.12ZM88.84,40.97c0-2.67-1.19-3.57-2.77-3.57s-2.77.9-2.77,3.57v1.62c0,2.67,1.19,3.57,2.77,3.57s2.77-.9,2.77-3.57v-1.62Z" fill="#fff"/>
      <path d="M97.26,46.41c-.6.14-1.96.3-3.01.3-2.13,0-3-1.26-3-3.47v-6.09c0-.13.09-.25.22-.25h.13c.13,0,.22.12.22.25v6.09c0,1.9.59,2.93,2.42,2.93,1.05,0,2.15-.12,2.63-.21v-8.81c0-.13.08-.25.22-.25h.12c.14,0,.22.12.22.25v9.02c0,.16-.08.21-.18.24Z" fill="#fff"/>
      <path d="M101.54,42.53c-.51,0-1.06-.03-1.43-.05v3.91c0,.13-.09.25-.22.25h-.13c-.13,0-.22-.12-.22-.25v-9.23c0-.12.11-.23.22-.25.46-.03,1.22-.07,1.78-.07,2.23,0,3.56.77,3.56,2.66v.22c0,2.05-1.33,2.8-3.56,2.8ZM104.53,39.5c0-1.62-1.03-2.15-2.98-2.15-.55,0-1.05.01-1.43.04v4.57c.41.02.98.05,1.43.05,2.03,0,2.98-.63,2.98-2.29v-.22Z" fill="#fff"/>
    </g>
  </g>
</svg>