<?xml version="1.0" encoding="UTF-8"?>
<svg id="Layer_2" data-name="Layer 2" xmlns="http://www.w3.org/2000/svg" viewBox="0 0 58.36 58.36">
  <g id="Ebene_1" data-name="Ebene 1">
    <g>
      <path d="M43.96,42.58h-4.96c-.41,0-.71-.34-.71-.75v-16.57c0-4.43-1.17-5.22-5.63-5.22v21.79c0,.41-.34.75-.75.75h-4.96c-.41,0-.71-.34-.71-.75v-21.79c-4.47,0-5.67.79-5.67,5.22v16.57c0,.41-.3.75-.71.75h-4.96c-.41,0-.75-.34-.75-.75v-16.57c0-9.28,4.73-10.93,15.29-10.93s15.29,1.65,15.29,10.93v16.57c0,.41-.34.75-.75.75Z" fill="#CAA05C"/>
      <path d="M29.18,0C13.06,0,0,13.06,0,29.18s13.06,29.18,29.18,29.18,29.18-13.06,29.18-29.18S45.3,0,29.18,0ZM29.18,53.2c-13.27,0-24.02-10.75-24.02-24.02S15.91,5.16,29.18,5.16s24.02,10.75,24.02,24.02-10.75,24.02-24.02,24.02Z" fill="#CAA05C"/>
    </g>
  </g>
</svg>
